<svg xmlns="http://www.w3.org/2000/svg" width="202" height="176.181" viewBox="0 0 202 176.181">
  <g id="undraw_download_re_li50" transform="translate(0 0)">
    <path id="Path_54" data-name="Path 54" d="M930.662,729.859V710.773S938.1,724.3,930.662,729.859Z" transform="translate(-742.418 -553.879)" fill="#0d7400"/>
    <path id="Path_55" data-name="Path 55" d="M893.174,747.087l-14.06-12.908S894.112,737.85,893.174,747.087Z" transform="translate(-704.471 -571.109)" fill="#0d7400"/>
    <path id="Path_56" data-name="Path 56" d="M288.5,150.106h-.786V128.584a12.456,12.456,0,0,0-12.456-12.456h-45.6A12.456,12.456,0,0,0,217.2,128.584V246.656a12.456,12.456,0,0,0,12.456,12.456h45.6a12.456,12.456,0,0,0,12.456-12.456v-81.23h.786Z" transform="translate(-217.2 -116.128)"/>
    <path id="Path_57" data-name="Path 57" d="M285.346,128.411h-5.952A4.419,4.419,0,0,1,275.3,134.5H249.18a4.419,4.419,0,0,1-4.092-6.089h-5.559a9.3,9.3,0,0,0-9.3,9.3v117.9a9.3,9.3,0,0,0,9.3,9.3h45.817a9.3,9.3,0,0,0,9.3-9.3h0v-117.9A9.3,9.3,0,0,0,285.346,128.411Z" transform="translate(-226.79 -125.17)" fill="#fff"/>
    <circle id="Ellipse_44" data-name="Ellipse 44" cx="22.281" cy="22.281" r="22.281" transform="translate(13.367 46.645)" fill="#e9242b"/>
    <path id="Path_58" data-name="Path 58" d="M340.13,359.512l-5.541,5.707a1.26,1.26,0,0,1-.923.372h-.018a1.27,1.27,0,0,1-.926-.372l-5.538-5.707c-.018-.021-.04-.04-.058-.058a1.225,1.225,0,0,1,.058-1.728,1.364,1.364,0,0,1,1.868,0l3.282,3.43v-8.844a1.324,1.324,0,0,1,2.646,0v8.844l3.28-3.43a1.367,1.367,0,0,1,1.871,0l.058.058A1.227,1.227,0,0,1,340.13,359.512Z" transform="translate(-297.879 -289.065)" fill="#fff"/>
    <path id="Path_59" data-name="Path 59" d="M576.94,618.469H573.7l-1.539-12.477h4.774Z" transform="translate(-421.203 -446.104)" fill="#9f616a"/>
    <path id="Path_60" data-name="Path 60" d="M781.484,769.6h-10.43v-.132a4.06,4.06,0,0,1,4.059-4.06h6.371Z" transform="translate(-624.922 -594.096)" fill="#2f2e41"/>
    <path id="Path_61" data-name="Path 61" d="M488.4,615.807l-3.125-.836,1.736-12.451,4.612,1.233Z" transform="translate(-357.239 -443.548)" fill="#9f616a"/>
    <path id="Path_62" data-name="Path 62" d="M686.159,765.016l-10.076-2.694.034-.127a4.06,4.06,0,0,1,4.971-2.873h0l6.154,1.646Z" transform="translate(-555.009 -589.515)" fill="#2f2e41"/>
    <path id="Path_63" data-name="Path 63" d="M509.325,388.269l2.709,3.148-3.5,63.967h-7.485l-3.774-49.221-11.7,50.541L477.79,454.8l7.075-64.193Z" transform="translate(-351.727 -285.826)" fill="#2f2e41"/>
    <path id="Path_64" data-name="Path 64" d="M720.1,337.443l7.453-3.738,11.461.2,9.862,5.047-5.611,28.024,2.424,14.612h0a59.769,59.769,0,0,1-28.584.235l-.075-.018s5.571-19.766,3.2-25.8Z" transform="translate(-585.148 -276.298)" fill="#cbcbcb"/>
    <path id="Path_65" data-name="Path 65" d="M763.26,267.792a8.435,8.435,0,1,0,0,.063Q763.26,267.824,763.26,267.792Z" transform="translate(-606.753 -221.584)" fill="#9f616a"/>
    <path id="Path_66" data-name="Path 66" d="M749.915,248.825a2.4,2.4,0,0,1,1.614-.651,3.8,3.8,0,0,1,2.829,1.024,3.431,3.431,0,0,1,.486,2.149l0,2.067a3.936,3.936,0,0,0,.287,1.794,1.348,1.348,0,0,0,1.5.773c.691-.22,1-1.139,1.7-1.3a1.24,1.24,0,0,1,1.308.757,3.281,3.281,0,0,1,.189,1.606c-.067,1.083-1.62,1.512-1.839,2.574-.127.614-.572,1.84,0,1.583,2.638-.264,3.8-1.8,5-3.256l2.724-3.272a3.2,3.2,0,0,0,.7-1.135,3.153,3.153,0,0,0,.072-.905q-.022-1.22-.066-2.439c-.026-.71-.2-1.606-.9-1.752-.362-.076-.84.056-1.032-.26a.718.718,0,0,1-.033-.5,4.849,4.849,0,0,0,.146-2.442c-.4-1.179-1.79-1.663-3.016-1.885s-2.6-.414-3.371-1.394a10.706,10.706,0,0,0-.669-.941,2.627,2.627,0,0,0-1.255-.633,6.934,6.934,0,0,0-4.559.4,4.018,4.018,0,0,1-1.839.594c-.676-.043-1.253-.518-1.92-.634a2.731,2.731,0,0,0-2.638,1.576,3.312,3.312,0,0,0,.211,3.793c.464.492,1.156.83,1.348,1.478.078.264.06.548.13.814a1.47,1.47,0,0,0,1.184,1.025A2.088,2.088,0,0,0,749.915,248.825Z" transform="translate(-605.632 -207.441)"/>
    <path id="Path_67" data-name="Path 67" d="M724.164,413.7a3.024,3.024,0,0,0,4.393,1.485l15.132,8,.49-3.686-14.7-8.671a3.041,3.041,0,0,0-5.312,2.873Z" transform="translate(-590.246 -332.123)" fill="#9f616a"/>
    <path id="Path_68" data-name="Path 68" d="M742.245,414.467a3.024,3.024,0,0,1-4.612.487l-16.516,4.495.144-4.68,16.43-4.267a3.041,3.041,0,0,1,4.554,3.966Z" transform="translate(-588.161 -332.252)" fill="#9f616a"/>
    <path id="Path_69" data-name="Path 69" d="M786.24,353.8l3.22-.2s3.77,4.975,1.679,10.373c0,0,.362,19.392-7.988,18.6s-10.989-.8-10.989-.8l2.507-6.992,5.607-1.731s-1.728-7.624,1.543-10.8Z" transform="translate(-625.738 -290.941)" fill="#cbcbcb"/>
    <path id="Path_70" data-name="Path 70" d="M706.1,347.2l-.455-2.333s-6.712-.158-8.039,10.013c0,0-6.036,15.222-.12,17.182s12.424,0,12.424,0l-.49-6.713-6.51-1.329s3.363-4.351,1.532-8.124Z" transform="translate(-568.853 -284.519)" fill="#cbcbcb"/>
    <path id="Path_71" data-name="Path 71" d="M700.589,782.4H600.064a.264.264,0,0,1,0-.528H700.589a.264.264,0,0,1,0,.528Z" transform="translate(-498.853 -606.218)" fill="#cbcbcb"/>
  </g>
</svg>
